<?xml version="1.0" standalone="no"?>
<!DOCTYPE svg PUBLIC "-//W3C//DTD SVG 1.1//EN" "http://www.w3.org/Graphics/SVG/1.1/DTD/svg11.dtd"><svg xmlns="http://www.w3.org/2000/svg" style="background-color:#FFF" width="133" height="133"><path stroke="black" fill="none" stroke-width="1" d="M28.46, 43.225L28.61, 43.209L29.058, 43.194L29.805, 43.18L30.85, 43.167L32.193, 43.155L33.833, 43.144L35.77, 43.134L38.004, 43.125L40.533, 43.116L43.359, 43.11L46.48, 43.104L49.895, 43.099L53.606, 43.095L57.61, 43.092L61.908, 43.091L66.5, 43.09L71.092, 43.091L75.39, 43.092L79.394, 43.095L83.105, 43.099L86.52, 43.104L89.641, 43.11L92.467, 43.116L94.996, 43.125L97.23, 43.134L99.167, 43.144L100.807, 43.155L102.15, 43.167L103.195, 43.18L103.942, 43.194L104.39, 43.209L104.54, 43.225L104.656, 43.32L104.935, 43.36L105.219, 43.394L105.335, 43.474L105.473, 43.586L105.803, 43.682L106.129, 43.781L106.265, 43.895L106.468, 44.025L106.665, 44.145L106.956, 44.363L107.352, 44.615L107.867, 45.083L108.334, 45.599L108.587, 45.995L108.805, 46.285L108.925, 46.482L109.055, 46.685L109.169, 46.821L109.268, 47.147L109.364, 47.477L109.476, 47.615L109.556, 47.731L109.59, 48.015L109.63, 48.294L109.725, 48.41L109.756, 48.755L109.783, 49.786L109.806, 51.502L109.826, 53.898L109.84, 56.971L109.851, 60.719L109.858, 65.138L109.86, 70.225L109.858, 75.312L109.851, 79.73L109.84, 83.477L109.826, 86.55L109.806, 88.945L109.783, 90.66L109.756, 91.691L109.725, 92.035L109.63, 92.173L109.59, 92.503L109.553, 92.829L109.465, 92.965L109.351, 93.103L109.252, 93.432L109.154, 93.762L109.045, 93.9L108.925, 94.098L108.805, 94.295L108.592, 94.575L108.379, 94.928L107.995, 95.36L107.563, 95.744L107.21, 95.957L106.93, 96.17L106.732, 96.29L106.535, 96.42L106.203, 96.638L105.87, 96.841L105.548, 96.955L105.169, 97.121L105.066, 97.145L104.758, 97.167L104.222, 97.187L103.437, 97.204L102.38, 97.22L101.029, 97.233L99.363, 97.245L97.358, 97.255L94.994, 97.263L92.247, 97.27L89.096, 97.276L85.518, 97.28L81.492, 97.283L76.995, 97.285L72.005, 97.287L66.5, 97.287L60.995, 97.287L56.005, 97.285L51.508, 97.283L47.482, 97.28L43.904, 97.276L40.753, 97.27L38.006, 97.263L35.642, 97.255L33.637, 97.245L31.971, 97.233L30.62, 97.219L29.563, 97.204L28.778, 97.186L28.243, 97.167L27.935, 97.145L27.832, 97.121L27.452, 96.955L27.13, 96.841L26.797, 96.638L26.465, 96.42L26.268, 96.29L26.07, 96.17L25.79, 95.957L25.437, 95.744L25.005, 95.36L24.621, 94.928L24.408, 94.575L24.195, 94.295L24.076, 94.097L23.956, 93.9L23.846, 93.762L23.748, 93.432L23.649, 93.103L23.535, 92.965L23.447, 92.829L23.41, 92.503L23.37, 92.173L23.275, 92.035L23.244, 91.691L23.217, 90.66L23.194, 88.945L23.174, 86.55L23.16, 83.477L23.149, 79.73L23.142, 75.312L23.14, 70.225L23.142, 65.138L23.149, 60.719L23.16, 56.971L23.174, 53.898L23.194, 51.502L23.217, 49.786L23.244, 48.755L23.275, 48.41L23.37, 48.294L23.41, 48.015L23.444, 47.731L23.524, 47.615L23.636, 47.477L23.732, 47.147L23.831, 46.821L23.945, 46.685L24.075, 46.482L24.195, 46.285L24.413, 45.994L24.665, 45.598L25.133, 45.083L25.649, 44.616L26.045, 44.363L26.335, 44.145L26.532, 44.025L26.735, 43.895L26.871, 43.781L27.197, 43.682L27.527, 43.586L27.665, 43.474L27.781, 43.394L28.065, 43.36L28.344, 43.32L28.46, 43.225"/><path stroke="black" fill="none" stroke-width="1" d="M76.943, 48.976L77.284, 49.454L77.329, 49.845L77.337, 50.509L77.337, 51.673L55.663, 51.673L55.621, 50.597L55.641, 49.848L55.774, 49.303L56.036, 48.925L56.441, 48.675L56.701, 48.653L57.334, 48.633L58.298, 48.616L59.553, 48.602L61.056, 48.591L62.765, 48.585L66.635, 48.587L76.548, 48.613L76.943, 48.976"/><path stroke="black" fill="none" stroke-width="1" d="M77.171, 52.525L77.232, 52.693L77.284, 53.164L77.33, 53.895L77.367, 54.843L77.419, 57.22L77.439, 59.953L77.428, 62.701L77.384, 65.123L77.35, 66.105L77.307, 66.877L77.256, 67.397L77.197, 67.622L76.908, 67.678L76.2, 67.726L75.132, 67.767L73.765, 67.8L70.372, 67.845L66.5, 67.86L62.628, 67.845L59.235, 67.8L57.868, 67.767L56.8, 67.726L56.092, 67.678L55.803, 67.622L55.692, 67.274L55.655, 66.856L55.629, 66.198L55.612, 65.24L55.601, 63.925L55.596, 62.192L55.595, 59.985L55.595, 52.555L55.891, 52.509L56.161, 52.504L56.841, 52.499L57.873, 52.496L59.2, 52.493L62.508, 52.491L66.305, 52.492L70.13, 52.496L73.523, 52.503L74.914, 52.507L76.023, 52.513L76.795, 52.519L77.171, 52.525"/><path stroke="black" fill="none" stroke-width="1" d="M61.918, 56.348L62.199, 56.125L62.369, 56.24L62.714, 56.544L63.694, 57.486L64.661, 58.477L64.991, 58.843L65.139, 59.045L65.037, 59.222L64.725, 59.579L63.733, 60.578L62.689, 61.537L62.312, 61.843L62.12, 61.949L61.894, 61.811L61.95, 61.52L62.302, 61.046L62.967, 60.359L63.751, 59.572L64.012, 59.054L63.753, 58.527L62.972, 57.715L62.448, 57.176L62.11, 56.784L61.918, 56.348"/><path stroke="black" fill="none" stroke-width="1" d="M65.357, 61.502L65.662, 61.385L66.375, 61.316L68.478, 61.304L70.563, 61.436L71.255, 61.545L71.529, 61.679L71.571, 61.98L68.511, 61.98L67.487, 61.977L66.699, 61.967L65.718, 61.905L65.346, 61.761L65.357, 61.502"/><path stroke="black" fill="none" stroke-width="1" d="M51.537, 66.9L51.537, 68.162L42.435, 68.199L39.977, 68.206L37.973, 68.207L36.382, 68.202L35.165, 68.19L34.281, 68.171L33.691, 68.144L33.353, 68.108L33.229, 68.064L33.155, 67.666L33.122, 66.961L33.135, 66.236L33.198, 65.778L33.509, 65.665L33.972, 65.629L34.741, 65.606L35.893, 65.593L37.504, 65.589L39.651, 65.592L42.409, 65.601L51.537, 65.638L51.537, 66.9"/><path stroke="black" fill="none" stroke-width="1" d="M99.817, 66.9L99.817, 68.162L81.463, 68.162L81.427, 67.046L81.417, 66.201L81.453, 65.746L81.556, 65.696L81.856, 65.657L82.404, 65.628L83.252, 65.608L84.451, 65.596L86.053, 65.592L88.109, 65.594L90.67, 65.601L99.819, 65.638L99.819, 66.9"/><path stroke="black" fill="none" stroke-width="1" d="M47.049, 78.418L47.324, 78.743L47.402, 79.181L47.286, 79.642L46.982, 80.034L46.161, 80.329L45.781, 80.327L45.621, 80.2L45.439, 80.065L45.251, 79.951L45.097, 79.67L45.024, 78.964L45.31, 78.456L45.801, 78.179L46.41, 78.158L47.05, 78.418"/><path stroke="black" fill="none" stroke-width="1" d="M80.035, 78.512L80.327, 79.061L80.22, 79.657L79.797, 80.134L79.136, 80.33L78.346, 80.049L77.968, 79.405L78.061, 78.693L78.689, 78.21L79.403, 78.179L80.035, 78.512"/><path stroke="black" fill="none" stroke-width="1" d="M37.615, 78.834L37.994, 79.942L38.122, 80.401L38.171, 80.673L38.306, 81.099L38.473, 81.535L38.69, 82.263L38.96, 83.211L39.241, 84.19L39.461, 84.942L39.579, 85.354L39.773, 85.494L39.963, 85.037L40.166, 84.341L40.31, 83.933L40.493, 83.261L40.681, 82.569L40.826, 82.128L40.901, 81.909L41.028, 81.51L41.371, 80.398L41.725, 79.22L42.004, 78.654L42.415, 78.479L43.164, 78.47L43.908, 78.483L44.231, 78.617L44.218, 79.015L43.954, 79.82L43.636, 80.744L43.351, 81.598L43.127, 82.237L42.966, 82.658L42.875, 82.895L42.719, 83.337L42.296, 84.59L41.631, 86.518L41.482, 86.919L41.283, 87.515L41.036, 88.175L40.769, 88.533L40.357, 88.681L39.678, 88.71L38.7, 88.71L38.482, 88.211L38.205, 87.547L37.898, 86.723L37.436, 85.388L37.108, 84.42L36.694, 83.193L36.217, 81.795L35.806, 80.7L35.514, 79.877L35.343, 79.286L35.295, 78.889L35.571, 78.523L36.357, 78.47L36.997, 78.476L37.346, 78.517L37.614, 78.834"/><path stroke="black" fill="none" stroke-width="1" d="M74.745, 78.828L75.682, 79.541L76.311, 80.549L76.532, 81.606L76.241, 82.465L75.841, 82.938L75.342, 83.364L75.156, 83.492L75.322, 83.52L75.838, 83.697L76.225, 84.153L76.595, 85.563L76.391, 87.074L76.062, 87.656L75.576, 88.009L75.28, 88.169L74.906, 88.347L74.191, 88.498L72.202, 88.696L70.232, 88.714L69.542, 88.64L69.202, 88.502L69.137, 88.026L69.084, 86.924L69.044, 85.402L69.019, 83.665L69.012, 81.918L69.024, 80.365L69.057, 79.214L69.113, 78.667L69.36, 78.555L69.932, 78.487L71.662, 78.469L73.525, 78.591L74.264, 78.696L74.745, 78.828"/><path stroke="black" fill="none" stroke-width="1" d="M84.294, 80.153L84.323, 80.663L84.368, 80.94L84.59, 81.036L85.018, 80.982L85.306, 81.091L85.469, 81.377L85.52, 81.852L85.494, 82.315L85.384, 82.579L85.139, 82.697L84.71, 82.725L84.32, 82.725L84.32, 86.85L84.83, 86.85L85.236, 86.891L85.487, 87.039L85.615, 87.33L85.65, 87.8L85.603, 88.271L85.416, 88.548L85.017, 88.677L84.336, 88.71L83.193, 88.588L82.524, 88.082L82.197, 86.987L82.121, 86.153L82.081, 85.094L82.034, 82.741L81.546, 82.699L81.062, 82.657L81.021, 81.94L81.023, 81.456L81.117, 81.17L81.339, 81.034L81.727, 81L82.069, 80.917L82.081, 80.397L82.056, 79.69L82.179, 79.311L82.541, 79.167L83.229, 79.161L84.258, 79.203L84.294, 80.153"/><path stroke="black" fill="none" stroke-width="1" d="M88.949, 80.091L88.991, 80.985L89.614, 81.021L90.243, 81.062L90.243, 82.657L89.598, 82.699L88.959, 82.741L89.001, 84.72L89.037, 85.983L89.124, 86.625L89.334, 86.86L89.739, 86.902L90.243, 86.918L90.279, 87.744L90.269, 88.316L90.091, 88.616L89.632, 88.716L88.777, 88.689L87.786, 88.488L87.2, 87.918L86.921, 86.785L86.866, 85.945L86.85, 84.891L86.85, 82.657L85.853, 82.657L85.811, 81.904L85.828, 81.404L85.952, 81.107L86.2, 80.999L86.585, 81.062L86.809, 80.997L86.843, 80.734L86.85, 80.232L86.865, 79.58L86.983, 79.254L87.315, 79.149L87.972, 79.161L88.912, 79.203L88.949, 80.091"/><path stroke="black" fill="none" stroke-width="1" d="M71.316, 81.494L71.28, 80.33L72.195, 80.33L73.159, 80.391L73.781, 80.595L74.116, 80.974L74.215, 81.561L74.05, 82.119L73.575, 82.505L72.821, 82.704L71.82, 82.704L71.352, 82.657L71.316, 81.494"/><path stroke="black" fill="none" stroke-width="1" d="M52.857, 80.994L53.241, 81.441L53.256, 82.136L52.965, 82.779L52.431, 83.068L51.601, 83.151L51.156, 83.542L50.976, 84.495L50.947, 85.263L50.94, 86.268L50.94, 87.11L50.931, 87.733L50.826, 88.452L50.513, 88.689L49.875, 88.71L49.224, 88.692L48.912, 88.34L48.844, 87.899L48.815, 87.206L48.809, 86.207L48.81, 84.845L48.81, 81.135L49.122, 81.057L50.236, 81.024L50.624, 81.185L50.805, 81.442L50.872, 81.826L51.137, 81.525L51.966, 80.973L52.857, 80.995"/><path stroke="black" fill="none" stroke-width="1" d="M65.637, 81.052L66.719, 81.531L67.528, 82.206L67.903, 82.891L67.685, 83.4L67.102, 83.559L66.403, 83.499L65.816, 83.272L65.57, 82.928L65.361, 82.699L64.874, 82.591L64.323, 82.62L63.918, 82.803L63.681, 83.177L63.806, 83.495L64.315, 83.78L65.232, 84.055L66.45, 84.429L67.228, 84.884L67.641, 85.485L67.762, 86.295L67.549, 87.263L66.977, 88.004L66.145, 88.507L65.153, 88.759L64.101, 88.75L63.089, 88.467L62.217, 87.898L61.585, 87.032L61.363, 86.465L61.523, 86.227L62.002, 86.072L62.641, 86.06L63.2, 86.172L63.44, 86.387L63.728, 86.832L64.393, 87.079L65.134, 87.076L65.653, 86.772L65.762, 86.457L65.643, 86.188L65.292, 85.961L64.703, 85.775L63.773, 85.515L63.056, 85.239L62.308, 84.817L61.838, 84.257L61.632, 83.612L61.677, 82.934L61.959, 82.276L62.467, 81.693L63.187, 81.236L64.105, 80.959L64.854, 80.894L65.638, 81.052"/><path stroke="black" fill="none" stroke-width="1" d="M95.147, 81.068L96.031, 81.413L96.73, 81.914L97.19, 82.519L97.355, 83.177L97.049, 83.488L96.35, 83.56L95.584, 83.41L95.079, 83.057L94.611, 82.666L93.997, 82.566L93.463, 82.743L93.235, 83.182L93.299, 83.489L93.572, 83.717L94.175, 83.926L95.23, 84.174L96.048, 84.463L96.675, 84.902L97.104, 85.45L97.325, 86.066L97.333, 86.71L97.12, 87.34L96.677, 87.916L95.999, 88.398L95.29, 88.61L94.341, 88.701L93.385, 88.666L92.659, 88.497L91.759, 87.912L91.112, 87.177L90.857, 86.511L91.136, 86.133L92.325, 86.08L92.782, 86.2L92.965, 86.393L93.181, 86.78L93.707, 87.041L94.364, 87.125L94.97, 86.98L95.213, 86.617L95.002, 86.177L94.471, 85.806L93.755, 85.65L93.266, 85.53L92.586, 85.245L91.626, 84.683L91.139, 83.958L91.071, 83.158L91.369, 82.369L91.978, 81.679L92.847, 81.174L93.921, 80.942L95.147, 81.068"/><path stroke="black" fill="none" stroke-width="1" d="M47.137, 81.078L47.214, 81.399L47.279, 82.198L47.329, 83.322L47.362, 84.621L47.365, 87.128L47.33, 88.033L47.267, 88.502L46.945, 88.655L46.315, 88.718L45.655, 88.685L45.246, 88.549L45.169, 88.165L45.115, 87.298L45.083, 86.11L45.073, 84.765L45.085, 83.427L45.119, 82.258L45.174, 81.423L45.251, 81.083L45.614, 81.03L46.192, 81.011L46.772, 81.026L47.137, 81.078"/><path stroke="black" fill="none" stroke-width="1" d="M55.818, 81.104L55.894, 81.302L55.95, 81.813L55.99, 82.666L56.016, 83.889L56.033, 84.893L56.059, 85.647L56.182, 86.545L56.483, 86.87L57.06, 86.907L57.742, 86.84L58.098, 86.483L58.233, 85.554L58.252, 84.788L58.255, 83.774L58.255, 81.135L58.562, 81.057L58.988, 81.016L59.59, 81.021L60.318, 81.062L60.318, 88.642L59.382, 88.642L58.872, 88.635L58.589, 88.597L58.411, 88.346L58.25, 88.055L58.12, 88.164L57.789, 88.449L57.002, 88.646L56.071, 88.709L55.304, 88.59L54.613, 88.113L54.088, 87.36L53.991, 86.914L53.917, 86.13L53.846, 84.028L53.881, 82.024L53.941, 81.36L54.031, 81.083L54.398, 81.026L54.96, 81.012L55.504, 81.038L55.818, 81.104"/><path stroke="black" fill="none" stroke-width="1" d="M80.034, 81.109L80.113, 81.335L80.16, 81.968L80.177, 83.126L80.169, 84.928L80.132, 88.642L79.27, 88.679L78.606, 88.671L78.231, 88.601L78.151, 88.239L78.093, 87.384L78.058, 86.201L78.046, 84.853L78.057, 83.506L78.091, 82.323L78.149, 81.469L78.231, 81.109L78.576, 81.03L79.134, 81.004L79.692, 81.03L80.034, 81.109"/><path stroke="black" fill="none" stroke-width="1" d="M71.29, 85.572L71.29, 84.294L72.563, 84.341L73.454, 84.43L74.048, 84.634L74.378, 84.973L74.48, 85.468L74.355, 86.096L73.962, 86.525L73.275, 86.771L72.267, 86.85L71.29, 86.85L71.29, 85.572"/><path stroke="black" fill="none" stroke-width="1" d="M56.151, 49.116L56.437, 48.81L76.522, 48.81L76.833, 49.101L77.088, 49.525L77.13, 49.899L77.14, 50.498L77.14, 51.605L55.86, 51.605L55.86, 50.514L55.87, 49.938L55.912, 49.564L56.15, 49.116"/><path stroke="black" fill="none" stroke-width="1" d="M55.995, 52.644L56.244, 52.639L56.914, 52.634L57.944, 52.631L59.275, 52.628L60.847, 52.627L62.601, 52.626L66.417, 52.627L70.245, 52.631L73.609, 52.638L74.969, 52.642L76.034, 52.647L76.744, 52.653L77.041, 52.66L77.06, 52.814L77.078, 53.251L77.095, 53.942L77.11, 54.854L77.132, 57.224L77.14, 60.115L77.14, 67.565L55.86, 67.565L55.86, 60.125L55.862, 58.416L55.869, 56.92L55.88, 55.641L55.895, 54.583L55.914, 53.75L55.937, 53.146L55.964, 52.776L55.995, 52.644"/><path stroke="black" fill="none" stroke-width="1" d="M63.357, 56.842L64.035, 57.547L64.749, 58.292L65.492, 59.06L63.97, 60.583L63.021, 61.499L62.4, 61.985L62.001, 62.103L61.715, 61.918L61.608, 61.715L61.703, 61.455L62.087, 61.007L62.848, 60.24L64.038, 59.055L62.874, 57.886L62.174, 57.152L61.816, 56.669L61.749, 56.34L61.923, 56.068L62.145, 55.949L62.429, 56.022L62.818, 56.312L63.357, 56.842"/><path stroke="black" fill="none" stroke-width="1" d="M71.69, 61.455L71.791, 61.819L71.434, 62.015L71.008, 62.063L70.378, 62.086L69.511, 62.089L68.38, 62.079L67.271, 62.065L66.435, 62.046L65.839, 62.013L65.447, 61.959L65.136, 61.756L65.222, 61.372L65.531, 61.26L66.263, 61.186L68.435, 61.147L70.617, 61.241L71.362, 61.334L71.69, 61.455"/><path stroke="black" fill="none" stroke-width="1" d="M33.375, 65.866L33.56, 65.86L34.087, 65.855L34.918, 65.85L36.018, 65.845L37.349, 65.841L38.875, 65.838L42.363, 65.835L51.34, 65.835L51.34, 67.965L33.318, 67.965L33.344, 66.931L33.365, 66.194L33.375, 65.866"/><path stroke="black" fill="none" stroke-width="1" d="M81.66, 66.9L81.66, 65.835L99.75, 65.835L99.75, 67.965L81.66, 67.965L81.66, 66.9"/><path stroke="black" fill="none" stroke-width="1" d="M45.439, 78.579L46.13, 78.341L46.919, 78.543L47.203, 78.997L47.121, 79.545L46.753, 80.006L46.181, 80.2L45.672, 80.026L45.334, 79.6L45.234, 79.069L45.438, 78.58"/><path stroke="black" fill="none" stroke-width="1" d="M78.288, 78.667L78.681, 78.376L79.214, 78.324L79.728, 78.495L80.065, 78.87L80.09, 79.548L79.688, 80.019L79.064, 80.16L78.423, 79.847L78.089, 79.281L78.289, 78.667"/><path stroke="black" fill="none" stroke-width="1" d="M35.458, 79.104L35.375, 78.735L36.352, 78.735L37.021, 78.748L37.403, 78.964L37.696, 79.647L37.872, 80.246L38.102, 81.062L38.44, 82.127L38.648, 82.855L38.84, 83.52L38.991, 83.911L39.165, 84.475L39.31, 85.027L39.37, 85.38L39.446, 85.752L39.626, 85.885L39.839, 85.774L40.014, 85.416L40.168, 84.893L40.29, 84.523L40.431, 84.099L40.627, 83.457L40.965, 82.392L41.304, 81.288L41.44, 80.744L41.495, 80.418L41.63, 80.2L41.765, 79.966L41.901, 79.234L42.041, 78.735L44.051, 78.735L43.963, 79.218L43.755, 79.914L43.539, 80.416L43.276, 81.138L43.054, 81.824L42.96, 82.221L42.825, 82.528L42.69, 82.834L42.492, 83.442L42.295, 83.988L42.098, 84.538L41.895, 85.193L41.786, 85.593L41.634, 85.915L41.427, 86.518L41.217, 87.117L41.069, 87.442L40.965, 87.858L40.903, 88.153L40.688, 88.333L40.281, 88.416L39.64, 88.419L38.689, 88.377L38.357, 87.447L38.08, 86.651L37.89, 86.05L37.64, 85.317L37.296, 84.365L37.16, 83.883L37.105, 83.587L36.975, 83.39L36.84, 83.067L36.71, 82.657L36.575, 82.372L36.393, 81.748L36.194, 81.218L35.967, 80.533L35.768, 79.929L35.635, 79.603L35.458, 79.104"/><path stroke="black" fill="none" stroke-width="1" d="M69.258, 83.556L69.228, 78.735L71.711, 78.735L73.488, 78.769L74.047, 78.805L74.272, 78.849L74.714, 79.041L75.312, 79.28L75.765, 79.698L76.218, 80.877L76.034, 82.198L75.69, 82.793L75.171, 83.281L74.864, 83.493L75.368, 83.743L76.093, 84.354L76.466, 85.223L76.458, 86.212L76.044, 87.183L75.453, 87.85L74.67, 88.235L73.46, 88.403L72.62, 88.426L71.586, 88.419L69.29, 88.377L69.258, 83.556"/><path stroke="black" fill="none" stroke-width="1" d="M82.325, 80.257L82.325, 79.4L84.055, 79.4L84.055, 80.262L84.1, 80.829L84.254, 81.16L84.541, 81.283L84.99, 81.224L85.21, 81.272L85.255, 81.8L85.255, 82.444L84.122, 82.528L84.091, 84.455L84.093, 85.801L84.191, 86.586L84.432, 86.97L84.86, 87.115L85.231, 87.346L85.415, 87.78L85.381, 88.226L85.094, 88.492L84.347, 88.573L83.596, 88.46L82.963, 88.186L82.569, 87.785L82.487, 87.484L82.42, 86.921L82.366, 86.089L82.325, 84.985L82.263, 82.528L81.728, 82.46L81.198, 82.392L81.198, 81.795L81.238, 81.339L81.379, 81.234L81.827, 81.271L82.119, 81.135L82.277, 80.804L82.325, 80.257"/><path stroke="black" fill="none" stroke-width="1" d="M87.115, 80.262L87.115, 79.4L88.845, 79.4L88.845, 80.258L88.904, 80.824L89.09, 81.16L89.419, 81.28L89.905, 81.198L90.132, 81.232L90.175, 81.785L90.175, 82.46L88.845, 82.46L88.845, 84.652L88.847, 85.455L88.861, 86.061L88.964, 86.794L89.237, 87.071L89.765, 87.115L90.144, 87.317L90.251, 87.77L90.098, 88.248L89.697, 88.523L88.428, 88.592L87.636, 88.144L87.391, 87.689L87.23, 87.058L87.142, 86.238L87.115, 85.214L87.111, 84.333L87.1, 83.665L87.026, 82.846L86.838, 82.516L86.481, 82.434L86.07, 82.321L86.013, 81.795L86.059, 81.316L86.253, 81.239L86.679, 81.269L86.943, 81.141L87.077, 80.817L87.115, 80.262"/><path stroke="black" fill="none" stroke-width="1" d="M73.721, 80.356L74.219, 80.73L74.465, 81.159L74.482, 81.608L74.293, 82.044L73.393, 82.739L72.728, 82.929L71.95, 82.969L71.223, 82.928L71.186, 81.561L71.145, 80.2L72.288, 80.2L73.182, 80.245L73.721, 80.356"/><path stroke="black" fill="none" stroke-width="1" d="M45.267, 81.333L45.569, 81.241L46.233, 81.218L47.148, 81.234L47.148, 88.377L45.288, 88.377L45.251, 84.923L45.241, 83.57L45.241, 82.442L45.251, 81.657L45.267, 81.333"/><path stroke="black" fill="none" stroke-width="1" d="M49.075, 84.818L49.08, 81.198L49.875, 81.198L50.324, 81.205L50.563, 81.244L50.675, 81.54L50.704, 81.844L50.81, 81.952L51.026, 81.868L51.382, 81.592L51.911, 81.229L52.425, 81.13L52.935, 81.13L52.935, 82.86L52.395, 82.86L51.499, 82.975L50.978, 83.441L50.735, 84.438L50.688, 85.193L50.675, 86.149L50.675, 88.445L49.075, 88.445L49.075, 84.819"/><path stroke="black" fill="none" stroke-width="1" d="M54.125, 81.265L54.374, 81.222L54.962, 81.213L55.792, 81.233L55.86, 83.873L55.939, 85.805L55.988, 86.443L56.037, 86.736L56.381, 87.014L56.946, 87.119L57.567, 87.047L58.078, 86.793L58.452, 86.476L58.588, 81.239L60.25, 81.198L60.25, 88.455L59.419, 88.419L58.972, 88.388L58.716, 88.336L58.546, 88.081L58.418, 87.804L58.244, 87.886L57.928, 88.118L57.016, 88.507L55.975, 88.516L55.021, 88.18L54.369, 87.535L54.294, 87.244L54.228, 86.695L54.128, 85.057L54.087, 83.09L54.125, 81.265"/><path stroke="black" fill="none" stroke-width="1" d="M63.32, 81.327L64.183, 81.177L65.236, 81.183L66.125, 81.32L66.5, 81.561L66.692, 81.66L66.929, 81.788L67.208, 82.104L67.596, 82.891L67.659, 83.26L66.749, 83.26L66.062, 83.221L65.835, 83.104L65.571, 82.728L64.955, 82.483L64.255, 82.427L63.736, 82.621L63.577, 83.016L63.672, 83.486L63.957, 83.88L64.365, 84.05L64.963, 84.174L66.36, 84.627L67.161, 85.053L67.529, 85.585L67.623, 86.356L67.402, 87.274L66.795, 87.954L65.92, 88.39L64.896, 88.575L63.84, 88.504L62.87, 88.169L62.105, 87.565L61.663, 86.684L61.575, 86.315L62.442, 86.315L63.125, 86.357L63.31, 86.512L63.572, 86.955L64.192, 87.256L64.923, 87.343L65.518, 87.147L65.927, 86.646L65.858, 86.198L65.306, 85.798L64.266, 85.437L63.305, 85.081L62.567, 84.603L62.062, 84.041L61.797, 83.435L61.781, 82.822L62.024, 82.24L62.534, 81.729L63.32, 81.327"/><path stroke="black" fill="none" stroke-width="1" d="M78.335, 81.228L78.571, 81.207L79.135, 81.198L79.935, 81.198L79.935, 88.455L79.13, 88.419L78.325, 88.377L78.33, 84.819L78.331, 83.437L78.333, 82.299L78.334, 81.524L78.335, 81.229"/><path stroke="black" fill="none" stroke-width="1" d="M92.903, 81.317L94.271, 81.115L95.631, 81.409L96.674, 82.075L96.98, 82.509L97.09, 82.99L96.835, 83.253L96.252, 83.307L95.61, 83.17L95.183, 82.86L94.865, 82.52L94.602, 82.47L94.17, 82.46L93.273, 82.666L93.021, 83.151L93.392, 83.718L94.362, 84.169L95.775, 84.589L96.603, 85.017L96.993, 85.57L97.09, 86.367L97.078, 86.847L97.021, 87.161L96.633, 87.681L95.938, 88.17L95.096, 88.452L93.271, 88.448L92.434, 88.193L91.744, 87.787L91.277, 87.246L91.105, 86.585L91.37, 86.349L91.957, 86.276L92.555, 86.363L92.855, 86.605L93.155, 87.034L93.766, 87.299L94.476, 87.349L95.075, 87.135L95.348, 86.486L95.288, 86.138L95.095, 85.915L93.568, 85.375L92.642, 85.038L91.945, 84.579L91.483, 84.035L91.261, 83.441L91.287, 82.836L91.565, 82.256L92.102, 81.737L92.903, 81.317"/><path stroke="black" fill="none" stroke-width="1" d="M74.038, 84.413L74.491, 84.808L74.727, 85.233L74.61, 86.069L73.81, 86.719L72.454, 86.98L71.155, 86.98L71.155, 84.19L72.423, 84.19L73.495, 84.237L74.038, 84.413"/><path stroke="black" fill="none" stroke-width="1" d="M61.471, 48.644L60.691, 48.636L60.352, 48.629L60.433, 48.623L60.914, 48.618L61.775, 48.613L62.996, 48.61L64.555, 48.608L66.432, 48.607L68.308, 48.608L69.863, 48.61L71.076, 48.613L71.926, 48.618L72.396, 48.623L72.463, 48.629L72.107, 48.636L71.31, 48.644L68.999, 48.655L66.373, 48.659L63.755, 48.655L61.47, 48.644"/><path stroke="black" fill="none" stroke-width="1" d="M55.938, 49.085L56.215, 48.799L56.395, 48.68L56.355, 48.796L56.104, 49.075L55.768, 49.571L55.734, 49.95L55.751, 50.592L55.752, 51.365L55.694, 51.652L55.563, 51.232L55.58, 50.454L55.715, 49.633L55.938, 49.085"/><path stroke="black" fill="none" stroke-width="1" d="M77.27, 50.633L77.337, 49.543L77.379, 50.53L77.375, 51.254L77.311, 51.621L77.256, 51.375L77.27, 50.634"/><path stroke="black" fill="none" stroke-width="1" d="M55.657, 59.985L55.658, 58.552L55.66, 57.363L55.663, 56.434L55.668, 55.78L55.673, 55.417L55.679, 55.36L55.686, 55.624L55.694, 56.224L55.705, 57.98L55.709, 59.983L55.705, 61.985L55.694, 63.741L55.686, 64.343L55.679, 64.607L55.673, 64.55L55.668, 64.187L55.663, 63.534L55.66, 62.605L55.658, 61.417L55.657, 59.985"/><path stroke="black" fill="none" stroke-width="1" d="M77.327, 54.665L77.331, 53.897L77.341, 53.434L77.356, 53.311L77.374, 53.564L77.374, 55.761L77.355, 56.014L77.34, 55.891L77.331, 55.429L77.327, 54.665"/><path stroke="black" fill="none" stroke-width="1" d="M62.91, 57.787L62.135, 56.992L61.914, 56.749L61.85, 56.66L61.965, 56.749L62.227, 56.992L63.04, 57.787L63.815, 58.587L64.036, 58.831L64.1, 58.92L63.985, 58.831L63.723, 58.587L62.91, 57.787"/><path stroke="black" fill="none" stroke-width="1" d="M64.163, 57.949L63.113, 56.857L64.235, 57.954L64.871, 58.579L65.178, 58.933L65.231, 59.129L65.108, 59.284L64.913, 59.451L65.035, 59.279L65.015, 58.9L64.722, 58.54L64.162, 57.949"/><path stroke="black" fill="none" stroke-width="1" d="M77.322, 58.52L77.326, 57.94L77.338, 57.59L77.355, 57.498L77.374, 57.689L77.374, 59.351L77.355, 59.542L77.338, 59.45L77.326, 59.1L77.322, 58.52"/><path stroke="black" fill="none" stroke-width="1" d="M63.565, 59.684L63.996, 59.243L64.105, 59.227L63.959, 59.388L63.607, 59.725L63.107, 60.182L63.565, 59.684"/><path stroke="black" fill="none" stroke-width="1" d="M77.322, 61.845L77.326, 61.265L77.338, 60.915L77.355, 60.823L77.374, 61.014L77.374, 62.676L77.355, 62.867L77.338, 62.775L77.326, 62.425L77.322, 61.845"/><path stroke="black" fill="none" stroke-width="1" d="M61.871, 61.341L62.086, 61.186L61.98, 61.377L61.897, 61.783L61.845, 61.913L61.718, 61.656L61.871, 61.341"/><path stroke="black" fill="none" stroke-width="1" d="M66.864, 61.279L66.52, 61.263L66.688, 61.25L67.318, 61.24L68.36, 61.237L69.404, 61.241L70.035, 61.25L70.202, 61.264L69.856, 61.279L68.362, 61.299L66.864, 61.279"/><path stroke="black" fill="none" stroke-width="1" d="M66.926, 62.079L66.603, 62.06L66.779, 62.045L67.403, 62.036L68.427, 62.032L69.445, 62.038L70.053, 62.048L70.204, 62.061L69.851, 62.079L68.371, 62.094L66.926, 62.079"/><path stroke="black" fill="none" stroke-width="1" d="M77.322, 65.17L77.326, 64.59L77.338, 64.24L77.355, 64.148L77.374, 64.339L77.374, 66.001L77.355, 66.192L77.338, 66.1L77.326, 65.75L77.322, 65.17"/><path stroke="black" fill="none" stroke-width="1" d="M42.394, 65.669L33.318, 65.632L42.425, 65.632L51.538, 65.638L51.538, 68.162L42.362, 68.162L33.182, 68.168L51.47, 68.095L51.47, 65.705L42.394, 65.669"/><path stroke="black" fill="none" stroke-width="1" d="M81.452, 65.747L81.555, 65.696L81.855, 65.657L82.403, 65.628L83.251, 65.608L84.45, 65.596L86.052, 65.592L88.107, 65.594L90.668, 65.601L99.818, 65.638L99.818, 68.162L81.463, 68.162L81.426, 67.046L81.416, 66.201L81.452, 65.747"/><path stroke="black" fill="none" stroke-width="1" d="M99.75, 66.9L99.75, 68.095L81.53, 68.095L81.53, 65.7L99.75, 65.7L99.75, 66.9"/><path stroke="black" fill="none" stroke-width="1" d="M33.162, 66.9L33.178, 66.266L33.195, 66.203L33.214, 66.334L33.214, 67.466L33.178, 67.53L33.162, 66.9"/><path stroke="black" fill="none" stroke-width="1" d="M61.211, 67.799L60.366, 67.791L59.995, 67.784L60.075, 67.778L60.586, 67.773L61.506, 67.768L62.812, 67.765L64.484, 67.763L66.5, 67.762L68.516, 67.763L70.188, 67.765L71.494, 67.768L72.414, 67.773L72.925, 67.778L73.005, 67.784L72.634, 67.791L71.789, 67.799L69.318, 67.807L66.5, 67.81L63.683, 67.807L61.212, 67.799"/><path stroke="black" fill="none" stroke-width="1" d="M46.898, 78.418L46.618, 78.174L46.95, 78.371L47.314, 78.818L47.317, 78.961L47.262, 78.87L46.898, 78.418"/><path stroke="black" fill="none" stroke-width="1" d="M35.816, 78.569L35.662, 78.55L35.717, 78.533L36.378, 78.517L37.055, 78.531L37.134, 78.547L37.011, 78.568L35.816, 78.568"/><path stroke="black" fill="none" stroke-width="1" d="M41.984, 78.569L42.418, 78.437L43.201, 78.448L43.948, 78.57L44.274, 78.771L44.247, 78.962L44.197, 78.828L43.957, 78.631L43.614, 78.611L43.028, 78.626L42.264, 78.629L41.983, 78.569"/><path stroke="black" fill="none" stroke-width="1" d="M70.262, 78.569L69.988, 78.55L70.102, 78.535L70.568, 78.526L71.352, 78.522L72.146, 78.526L72.631, 78.536L72.771, 78.551L72.527, 78.569L71.41, 78.589L70.261, 78.569"/><path stroke="black" fill="none" stroke-width="1" d="M69.087, 83.525L69.09, 81.832L69.098, 80.81L69.104, 80.576L69.111, 80.539L69.12, 80.71L69.129, 81.099L69.14, 82.233L69.144, 83.525L69.14, 84.817L69.129, 85.951L69.12, 86.34L69.111, 86.511L69.104, 86.474L69.098, 86.24L69.09, 85.218L69.087, 83.525"/><path stroke="black" fill="none" stroke-width="1" d="M44.955, 79.213L45.005, 79.028L45.137, 79.467L45.179, 79.73L45.095, 79.665L44.955, 79.213"/><path stroke="black" fill="none" stroke-width="1" d="M47.194, 79.603L47.352, 79.29L47.444, 79.187L47.354, 79.581L47.105, 79.982L47.082, 79.901L47.195, 79.603"/><path stroke="black" fill="none" stroke-width="1" d="M82.143, 79.338L82.403, 79.172L82.725, 79.151L83.239, 79.161L84.258, 79.202L84.263, 80.132L84.273, 81.062L84.226, 80.158L84.174, 79.254L83.219, 79.296L82.263, 79.332L82.107, 80.932L82.081, 80.242L82.09, 79.695L82.144, 79.338"/><path stroke="black" fill="none" stroke-width="1" d="M86.902, 79.317L87.229, 79.194L87.881, 79.131L88.541, 79.14L88.892, 79.234L88.644, 79.294L87.967, 79.291L86.979, 79.249L86.959, 80.153L86.933, 81.062L86.882, 80.278L86.868, 79.675L86.902, 79.317"/><path stroke="black" fill="none" stroke-width="1" d="M76.381, 81.327L76.396, 80.947L76.433, 80.964L76.439, 81.629L76.399, 81.693L76.382, 81.327"/><path stroke="black" fill="none" stroke-width="1" d="M51.937, 80.995L52.467, 80.885L52.615, 80.911L52.4, 80.995L51.873, 81.104L51.804, 81.077L51.938, 80.995"/><path stroke="black" fill="none" stroke-width="1" d="M64.536, 80.953L64.511, 80.913L64.77, 80.896L65.031, 80.913L65.004, 80.953L64.537, 80.953"/><path stroke="black" fill="none" stroke-width="1" d="M93.931, 80.953L93.904, 80.913L94.165, 80.896L94.424, 80.913L94.399, 80.953L93.931, 80.953"/><path stroke="black" fill="none" stroke-width="1" d="M45.714, 81.094L45.685, 81.056L46.218, 81.042L46.729, 81.058L46.649, 81.093L45.714, 81.093"/><path stroke="black" fill="none" stroke-width="1" d="M49.444, 81.094L49.391, 81.056L49.875, 81.042L50.36, 81.056L50.306, 81.094L49.444, 81.094"/><path stroke="black" fill="none" stroke-width="1" d="M53.065, 81.899L53.051, 81.302L53.106, 81.114L53.171, 81.423L53.174, 82.008L53.132, 82.793L53.064, 81.899"/><path stroke="black" fill="none" stroke-width="1" d="M54.499, 81.094L54.446, 81.056L54.93, 81.042L55.413, 81.056L55.361, 81.094L54.499, 81.094"/><path stroke="black" fill="none" stroke-width="1" d="M58.884, 81.094L58.853, 81.056L59.382, 81.042L59.894, 81.058L59.814, 81.094L58.884, 81.094"/><path stroke="black" fill="none" stroke-width="1" d="M78.704, 81.094L78.651, 81.056L79.135, 81.042L79.62, 81.056L79.566, 81.094L78.704, 81.094"/><path stroke="black" fill="none" stroke-width="1" d="M81.499, 81.094L82.029, 81.088L82.038, 81.048L81.727, 81.031L81.442, 81.049L81.499, 81.094"/><path stroke="black" fill="none" stroke-width="1" d="M84.621, 81.088L84.594, 81.045L84.855, 81.026L85.114, 81.046L85.089, 81.088L84.621, 81.088"/><path stroke="black" fill="none" stroke-width="1" d="M89.11, 81.073L89.154, 81.036L89.536, 81.011L89.994, 81.032L90.222, 81.104L90.144, 81.153L89.874, 81.163L89.11, 81.073"/><path stroke="black" fill="none" stroke-width="1" d="M45.117, 84.725L45.147, 81.062L45.215, 84.787L45.288, 88.513L46.285, 88.585L47.282, 88.663L46.342, 88.689L45.583, 88.678L45.217, 88.306L45.138, 87.848L45.107, 87.135L45.105, 86.112L45.116, 84.725"/><path stroke="black" fill="none" stroke-width="1" d="M47.272, 84.788L47.276, 83.486L47.285, 82.693L47.299, 82.472L47.314, 82.886L47.329, 84.729L47.314, 86.606L47.298, 87.052L47.285, 86.858L47.275, 86.083L47.272, 84.788"/><path stroke="black" fill="none" stroke-width="1" d="M48.842, 84.808L48.872, 81.062L48.94, 84.788L49.013, 88.513L50.737, 88.513L50.805, 86.097L50.872, 84.37L50.909, 83.83L50.94, 83.614L50.962, 83.784L50.974, 84.295L50.975, 85.068L50.966, 86.024L50.95, 86.937L50.928, 87.615L50.814, 88.407L50.515, 88.679L49.922, 88.71L49.242, 88.696L48.918, 88.345L48.851, 87.9L48.826, 87.2L48.829, 86.189L48.842, 84.808"/><path stroke="black" fill="none" stroke-width="1" d="M58.307, 83.655L58.311, 82.752L58.321, 82.207L58.336, 82.063L58.354, 82.361L58.369, 83.657L58.354, 84.954L58.335, 85.252L58.32, 85.107L58.311, 84.561L58.307, 83.655"/><path stroke="black" fill="none" stroke-width="1" d="M80.065, 84.788L80.133, 81.062L80.168, 84.72L80.175, 86.153L80.173, 87.351L80.16, 88.19L80.138, 88.544L79.853, 88.655L79.271, 88.71L78.651, 88.699L78.252, 88.611L78.419, 88.541L79.047, 88.513L79.997, 88.513L80.065, 84.788"/><path stroke="black" fill="none" stroke-width="1" d="M81.052, 81.894L81.042, 81.13L81.145, 82.595L82.195, 82.595L82.133, 86.918L82.096, 84.829L82.055, 82.741L81.562, 82.699L81.062, 82.657L81.052, 81.894"/><path stroke="black" fill="none" stroke-width="1" d="M85.38, 81.795L85.442, 81.062L85.489, 81.785L85.492, 82.271L85.397, 82.555L85.165, 82.689L84.756, 82.725L84.33, 82.725L84.289, 84.652L84.242, 86.585L84.252, 84.621L84.257, 82.657L84.787, 82.595L85.317, 82.528L85.38, 81.795"/><path stroke="black" fill="none" stroke-width="1" d="M55.917, 83.79L55.92, 82.933L55.928, 82.414L55.941, 82.276L55.959, 82.559L55.979, 83.79L55.959, 85.021L55.941, 85.304L55.928, 85.165L55.92, 84.647L55.917, 83.79"/><path stroke="black" fill="none" stroke-width="1" d="M36.383, 82.325L36.348, 82.122L36.419, 82.195L36.632, 82.725L36.67, 82.931L36.596, 82.86L36.383, 82.325"/><path stroke="black" fill="none" stroke-width="1" d="M90.175, 82.439L90.264, 82.372L90.304, 82.512L90.159, 82.624L89.494, 82.694L88.913, 82.642L89.541, 82.616L90, 82.557L90.175, 82.439"/><path stroke="black" fill="none" stroke-width="1" d="M61.663, 82.756L61.749, 82.509L61.792, 82.517L61.726, 83.135L61.637, 83.467L61.596, 83.39L61.663, 82.756"/><path stroke="black" fill="none" stroke-width="1" d="M64.058, 82.564L64.269, 82.494L64.682, 82.471L65.017, 82.488L65.091, 82.522L64.91, 82.568L64.479, 82.621L64.156, 82.624L64.058, 82.564"/><path stroke="black" fill="none" stroke-width="1" d="M85.904, 82.631L85.962, 82.567L86.284, 82.585L86.645, 82.649L86.398, 82.699L85.904, 82.631"/><path stroke="black" fill="none" stroke-width="1" d="M93.422, 82.668L94.222, 82.476L94.762, 82.496L94.165, 82.579L93.682, 82.672L93.365, 82.772L93.3, 82.784L93.422, 82.668"/><path stroke="black" fill="none" stroke-width="1" d="M71.378, 82.762L71.672, 82.687L72.465, 82.652L73.194, 82.673L73.285, 82.741L72.805, 82.813L72.188, 82.842L71.642, 82.826L71.378, 82.761"/><path stroke="black" fill="none" stroke-width="1" d="M94.965, 82.798L95.023, 82.796L95.152, 82.99L95.456, 83.279L96.181, 83.4L97.022, 83.479L96.202, 83.499L95.27, 83.339L94.965, 82.798"/><path stroke="black" fill="none" stroke-width="1" d="M86.881, 85.052L86.887, 84.251L86.898, 83.709L86.913, 83.422L86.93, 83.385L86.95, 83.597L86.97, 84.053L86.991, 84.749L87.011, 85.682L87.01, 86.997L86.99, 87.345L86.959, 87.412L86.923, 87.155L86.897, 86.624L86.881, 85.052"/><path stroke="black" fill="none" stroke-width="1" d="M93.116, 83.208L93.139, 83.004L93.194, 83.193L93.412, 83.655L93.499, 83.79L93.334, 83.676L93.116, 83.208"/><path stroke="black" fill="none" stroke-width="1" d="M66.334, 83.489L66.283, 83.448L66.765, 83.432L67.25, 83.449L67.196, 83.488L66.334, 83.488"/><path stroke="black" fill="none" stroke-width="1" d="M94.04, 83.972L94.063, 83.921L94.252, 83.928L94.695, 84.06L94.76, 84.146L94.498, 84.107L94.04, 83.972"/><path stroke="black" fill="none" stroke-width="1" d="M62.375, 84.834L62.513, 84.842L62.842, 85.006L63.172, 85.214L63.31, 85.333L63.172, 85.302L62.842, 85.162L62.513, 84.973L62.375, 84.834"/><path stroke="black" fill="none" stroke-width="1" d="M96.83, 85.172L96.72, 85.011L96.919, 85.188L97.272, 85.785L97.355, 86.117L97.189, 85.769L96.83, 85.172"/><path stroke="black" fill="none" stroke-width="1" d="M76.646, 85.65L76.663, 85.317L76.704, 85.354L76.704, 85.951L76.663, 85.987L76.646, 85.65"/><path stroke="black" fill="none" stroke-width="1" d="M39.531, 85.546L39.687, 85.468L39.9, 85.676L39.741, 85.751L39.531, 85.546"/><path stroke="black" fill="none" stroke-width="1" d="M94.175, 85.707L94.261, 85.666L94.768, 85.847L95.094, 86L95.23, 86.102L95.081, 86.083L94.746, 85.969L94.388, 85.822L94.175, 85.707"/><path stroke="black" fill="none" stroke-width="1" d="M62.011, 86.149L61.967, 86.109L62.374, 86.092L62.787, 86.109L62.744, 86.149L62.011, 86.149"/><path stroke="black" fill="none" stroke-width="1" d="M91.536, 86.149L91.493, 86.109L91.905, 86.092L92.313, 86.109L92.269, 86.149L91.536, 86.149"/><path stroke="black" fill="none" stroke-width="1" d="M90.84, 86.393L90.89, 86.21L91.022, 86.647L91.064, 86.912L90.98, 86.85L90.84, 86.393"/><path stroke="black" fill="none" stroke-width="1" d="M63.809, 86.949L63.66, 86.793L63.741, 86.845L64.1, 87.007L64.614, 87.125L65.238, 87.214L64.676, 87.229L64.174, 87.179L63.809, 86.949"/><path stroke="black" fill="none" stroke-width="1" d="M57.055, 86.98L57.587, 86.871L57.656, 86.898L57.523, 86.98L56.993, 87.094L56.843, 87.068L57.055, 86.979"/><path stroke="black" fill="none" stroke-width="1" d="M84.923, 86.97L84.387, 86.886L84.86, 86.866L85.242, 86.901L85.494, 87.011L85.598, 87.301L85.647, 87.779L85.634, 88.243L85.551, 88.491L85.483, 88.314L85.453, 87.801L85.453, 87.047L84.923, 86.97"/><path stroke="black" fill="none" stroke-width="1" d="M89.51, 86.902L89.843, 86.851L90.227, 86.959L90.159, 87.018L89.9, 87.012L89.51, 86.902"/><path stroke="black" fill="none" stroke-width="1" d="M93.864, 87.209L93.83, 87.168L94.165, 87.151L94.498, 87.168L94.461, 87.209L93.864, 87.209"/><path stroke="black" fill="none" stroke-width="1" d="M87.479, 88.18L87.047, 87.733L87.525, 88.123L87.85, 88.415L87.957, 88.57L87.793, 88.482L87.479, 88.18"/><path stroke="black" fill="none" stroke-width="1" d="M40.851, 88.326L41.079, 88.118L40.898, 88.445L40.466, 88.619L39.743, 88.721L39.037, 88.726L38.658, 88.611L38.92, 88.554L39.641, 88.554L40.201, 88.568L40.538, 88.545L40.851, 88.326"/><path stroke="black" fill="none" stroke-width="1" d="M58.432, 88.309L58.423, 88.074L58.473, 88.289L58.662, 88.546L58.945, 88.571L59.455, 88.554L60.07, 88.556L60.261, 88.616L59.855, 88.739L59.244, 88.701L58.685, 88.543L58.431, 88.31"/><path stroke="black" fill="none" stroke-width="1" d="M54.93, 88.388L55.049, 88.386L55.335, 88.466L55.605, 88.582L55.683, 88.663L55.283, 88.584L54.93, 88.388"/><path stroke="black" fill="none" stroke-width="1" d="M57.325, 88.523L57.828, 88.333L57.782, 88.435L57.258, 88.637L56.987, 88.674L57.325, 88.523"/><path stroke="black" fill="none" stroke-width="1" d="M69.274, 88.616L69.415, 88.582L69.875, 88.563L71.462, 88.58L73.747, 88.642L71.565, 88.679L69.989, 88.677L69.487, 88.653L69.275, 88.616"/><path stroke="black" fill="none" stroke-width="1" d="M55.772, 50.676L55.788, 50.116L55.824, 50.176L55.824, 51.174L55.788, 51.231L55.772, 50.675"/><path stroke="black" fill="none" stroke-width="1" d="M77.187, 50.676L77.201, 50.116L77.239, 50.176L77.239, 51.174L77.201, 51.231L77.187, 50.676"/><path stroke="black" fill="none" stroke-width="1" d="M61.21, 51.703L60.365, 51.695L59.994, 51.688L60.074, 51.682L60.585, 51.677L61.505, 51.672L62.811, 51.669L64.483, 51.667L66.499, 51.666L68.515, 51.667L70.187, 51.669L71.493, 51.672L72.413, 51.677L72.924, 51.682L73.004, 51.688L72.633, 51.695L71.788, 51.703L69.317, 51.714L66.499, 51.718L63.681, 51.714L61.21, 51.703"/><path stroke="black" fill="none" stroke-width="1" d="M55.786, 52.7L56.02, 52.544L56.122, 52.568L56.025, 52.622L55.943, 52.996L55.912, 53.479L55.887, 54.199L55.867, 55.183L55.851, 56.463L55.838, 58.068L55.827, 60.026L55.797, 67.361L55.76, 60.114L55.751, 57.288L55.752, 54.948L55.757, 54.037L55.764, 53.338L55.774, 52.882L55.786, 52.7"/><path stroke="black" fill="none" stroke-width="1" d="M76.973, 52.633L76.887, 52.553L77.004, 52.57L77.11, 52.846L77.146, 53.247L77.172, 53.896L77.189, 54.847L77.2, 56.156L77.206, 57.876L77.207, 60.062L77.207, 67.496L77.175, 60.124L77.163, 58.172L77.148, 56.566L77.13, 55.277L77.109, 54.278L77.083, 53.542L77.053, 53.041L76.973, 52.633"/><path stroke="black" fill="none" stroke-width="1" d="M63.31, 56.858L63.011, 56.528L62.926, 56.39L63.103, 56.528L63.44, 56.857L63.739, 57.187L63.824, 57.325L63.645, 57.187L63.31, 56.857"/><path stroke="black" fill="none" stroke-width="1" d="M61.71, 56.608L61.746, 56.541L61.984, 56.815L62.51, 57.393L63.243, 58.188L62.479, 57.46L61.937, 56.91L61.71, 56.608"/><path stroke="black" fill="none" stroke-width="1" d="M65.087, 58.744L64.922, 58.531L65.17, 58.754L65.398, 59.024L65.31, 59.216L65.186, 59.317L65.232, 59.211L65.087, 58.743"/><path stroke="black" fill="none" stroke-width="1" d="M63.502, 59.616L63.883, 59.216L64.068, 59.05L64.039, 59.171L63.538, 59.658L62.978, 60.183L63.502, 59.616"/><path stroke="black" fill="none" stroke-width="1" d="M63.44, 61.014L64.246, 60.192L64.5, 59.942L64.604, 59.85L64.619, 59.89L64.48, 60.056L64.121, 60.42L63.476, 61.05L62.313, 62.178L63.44, 61.014"/><path stroke="black" fill="none" stroke-width="1" d="M61.622, 61.523L61.772, 61.315L61.762, 61.513L61.855, 61.949L61.97, 62.109L61.788, 61.954L61.622, 61.523"/><path stroke="black" fill="none" stroke-width="1" d="M33.25, 65.804L33.436, 65.783L33.969, 65.764L34.811, 65.746L35.926, 65.731L37.276, 65.718L38.824, 65.708L42.363, 65.7L51.47, 65.7L51.47, 68.095L33.182, 68.033L42.259, 67.996L51.34, 67.96L51.34, 65.83L42.295, 65.866L38.782, 65.872L37.246, 65.869L35.906, 65.862L34.8, 65.852L33.963, 65.838L33.435, 65.822L33.25, 65.803"/><path stroke="black" fill="none" stroke-width="1" d="M81.53, 66.9L81.53, 65.7L90.674, 65.737L99.818, 65.767L90.741, 65.804L81.66, 65.835L81.66, 67.96L90.741, 67.996L99.818, 68.033L81.53, 68.095L81.53, 66.9"/><path stroke="black" fill="none" stroke-width="1" d="M33.292, 66.968L33.308, 66.436L33.344, 66.464L33.349, 67.394L33.311, 67.475L33.292, 66.968"/><path stroke="black" fill="none" stroke-width="1" d="M61.211, 67.664L60.366, 67.656L59.995, 67.649L60.075, 67.643L60.586, 67.638L61.506, 67.633L62.812, 67.63L64.484, 67.628L66.5, 67.627L68.516, 67.628L70.188, 67.63L71.494, 67.633L72.414, 67.638L72.925, 67.643L73.005, 67.649L72.634, 67.656L71.789, 67.664L69.318, 67.675L66.5, 67.679L63.683, 67.675L61.212, 67.664"/><path stroke="black" fill="none" stroke-width="1" d="M45.75, 78.257L45.895, 78.209L46.217, 78.206L46.552, 78.241L46.732, 78.304L46.622, 78.364L46.275, 78.361L45.905, 78.307L45.75, 78.257"/><path stroke="black" fill="none" stroke-width="1" d="M78.605, 78.257L78.749, 78.209L79.07, 78.206L79.403, 78.241L79.582, 78.304L79.474, 78.364L79.125, 78.361L78.758, 78.307L78.605, 78.257"/><path stroke="black" fill="none" stroke-width="1" d="M35.333, 78.704L35.725, 78.576L36.43, 78.586L37.131, 78.704L37.51, 78.901L37.603, 79.119L37.458, 78.958L37.114, 78.766L36.782, 78.743L36.263, 78.756L35.58, 78.759L35.333, 78.704"/><path stroke="black" fill="none" stroke-width="1" d="M43.048, 78.699L42.092, 78.647L43.09, 78.657L43.885, 78.709L44.103, 78.87L44.061, 78.906L43.763, 78.777L43.048, 78.699"/><path stroke="black" fill="none" stroke-width="1" d="M70.256, 78.704L70.019, 78.685L70.134, 78.67L70.569, 78.661L71.29, 78.657L72.008, 78.661L72.442, 78.671L72.556, 78.686L72.319, 78.704L70.256, 78.704"/><path stroke="black" fill="none" stroke-width="1" d="M69.222, 83.593L69.225, 81.965L69.233, 80.976L69.244, 80.703L69.251, 80.86L69.259, 81.224L69.27, 82.298L69.274, 83.533L69.259, 85.879L69.251, 86.258L69.244, 86.429L69.233, 86.181L69.225, 85.211L69.222, 83.593"/><path stroke="black" fill="none" stroke-width="1" d="M82.247, 79.447L82.495, 79.315L83.157, 79.297L83.987, 79.317L83.156, 79.369L82.324, 79.416L82.304, 80.304L82.278, 81.198L82.227, 80.413L82.213, 79.807L82.247, 79.447"/><path stroke="black" fill="none" stroke-width="1" d="M87.037, 79.442L87.291, 79.305L88.009, 79.296L88.913, 79.332L88.923, 80.101L88.933, 80.865L88.829, 79.4L87.115, 79.4L87.063, 81.198L87.017, 80.413L87.003, 79.805L87.037, 79.442"/><path stroke="black" fill="none" stroke-width="1" d="M84.102, 80.268L84.115, 79.735L84.154, 79.764L84.154, 80.694L84.116, 80.775L84.102, 80.268"/><path stroke="black" fill="none" stroke-width="1" d="M78.153, 79.706L78.114, 79.543L78.241, 79.665L78.61, 80.049L78.718, 80.173L78.517, 80.086L78.153, 79.706"/><path stroke="black" fill="none" stroke-width="1" d="M76.246, 81.327L76.263, 80.947L76.304, 80.964L76.304, 81.629L76.263, 81.693L76.246, 81.327"/><path stroke="black" fill="none" stroke-width="1" d="M45.854, 81.229L46.654, 81.224L46.673, 81.186L46.218, 81.172L45.782, 81.189L45.854, 81.229"/><path stroke="black" fill="none" stroke-width="1" d="M49.002, 84.788L49.006, 83.486L49.015, 82.693L49.029, 82.472L49.044, 82.886L49.059, 84.729L49.044, 86.606L49.029, 87.052L49.015, 86.858L49.006, 86.083L49.002, 84.788"/><path stroke="black" fill="none" stroke-width="1" d="M49.511, 81.224L49.447, 81.183L49.807, 81.166L50.19, 81.183L50.176, 81.224L49.512, 81.224"/><path stroke="black" fill="none" stroke-width="1" d="M54.561, 81.224L54.52, 81.186L54.93, 81.172L55.338, 81.186L55.294, 81.224L54.561, 81.224"/><path stroke="black" fill="none" stroke-width="1" d="M58.411, 83.691L58.411, 82.697L58.425, 81.882L58.451, 81.332L58.489, 81.13L58.524, 81.264L58.547, 81.628L58.551, 82.824L58.528, 83.869L58.507, 84.648L58.486, 85.159L58.467, 85.403L58.45, 85.378L58.435, 85.085L58.422, 84.523L58.411, 83.691"/><path stroke="black" fill="none" stroke-width="1" d="M59.086, 81.224L59.022, 81.183L59.382, 81.166L59.767, 81.183L59.751, 81.224L59.086, 81.224"/><path stroke="black" fill="none" stroke-width="1" d="M78.771, 81.224L78.727, 81.186L79.135, 81.172L79.543, 81.186L79.499, 81.224L78.771, 81.224"/><path stroke="black" fill="none" stroke-width="1" d="M79.992, 84.788L79.995, 83.486L80.003, 82.693L80.016, 82.472L80.034, 82.886L80.049, 84.729L80.034, 86.606L80.016, 87.052L80.003, 86.858L79.995, 86.083L79.992, 84.788"/><path stroke="black" fill="none" stroke-width="1" d="M84.486, 81.224L84.46, 81.179L84.72, 81.161L84.981, 81.179L84.954, 81.224L84.486, 81.224"/><path stroke="black" fill="none" stroke-width="1" d="M85.291, 81.795L85.308, 81.387L85.349, 81.431L85.349, 82.159L85.308, 82.203L85.291, 81.795"/><path stroke="black" fill="none" stroke-width="1" d="M50.691, 81.556L50.711, 81.198L50.826, 81.956L51.184, 81.644L51.538, 81.327L51.221, 81.691L50.808, 81.97L50.691, 81.556"/><path stroke="black" fill="none" stroke-width="1" d="M52.961, 82.018L52.982, 81.198L53.034, 81.914L53.054, 82.508L52.976, 82.829L52.745, 82.957L52.306, 82.969L51.673, 82.943L52.301, 82.896L52.935, 82.844L52.961, 82.018"/><path stroke="black" fill="none" stroke-width="1" d="M60.307, 84.787L60.311, 83.538L60.32, 82.791L60.334, 82.603L60.349, 83.031L60.364, 84.847L60.349, 86.627L60.334, 87.023L60.32, 86.808L60.311, 86.043L60.307, 84.788"/><path stroke="black" fill="none" stroke-width="1" d="M54.052, 83.79L54.056, 82.933L54.066, 82.414L54.081, 82.276L54.099, 82.559L54.114, 83.79L54.099, 85.021L54.08, 85.304L54.065, 85.165L54.056, 84.647L54.052, 83.79"/><path stroke="black" fill="none" stroke-width="1" d="M78.262, 84.787L78.266, 83.578L78.275, 82.842L78.289, 82.635L78.304, 83.016L78.319, 84.728L78.304, 86.476L78.289, 86.889L78.275, 86.709L78.266, 85.99L78.262, 84.787"/><path stroke="black" fill="none" stroke-width="1" d="M85.951, 81.795L85.968, 81.536L86.008, 81.561L86.008, 82.029L85.968, 82.054L85.952, 81.795"/><path stroke="black" fill="none" stroke-width="1" d="M66.713, 81.66L66.553, 81.572L66.645, 81.535L67.076, 81.79L67.487, 82.325L67.468, 82.357L67.29, 82.148L66.713, 81.66"/><path stroke="black" fill="none" stroke-width="1" d="M82.195, 84.891L82.177, 83.96L82.178, 83.212L82.196, 82.725L82.231, 82.575L82.268, 82.798L82.293, 83.329L82.299, 84.995L82.257, 87.312L82.195, 84.891"/><path stroke="black" fill="none" stroke-width="1" d="M84.112, 82.631L84.19, 82.496L84.225, 82.682L84.223, 83.306L84.19, 84.486L84.123, 86.518L84.086, 84.663L84.078, 83.301L84.09, 82.847L84.112, 82.631"/><path stroke="black" fill="none" stroke-width="1" d="M38.653, 82.928L38.611, 82.663L38.695, 82.725L38.835, 83.182L38.785, 83.365L38.653, 82.928"/><path stroke="black" fill="none" stroke-width="1" d="M67.617, 82.958L67.588, 82.746L67.679, 82.928L67.741, 83.174L67.625, 83.315L67.289, 83.371L66.687, 83.359L65.768, 83.312L66.718, 83.286L67.249, 83.264L67.528, 83.22L67.617, 82.958"/><path stroke="black" fill="none" stroke-width="1" d="M71.274, 82.902L71.48, 82.843L72.127, 82.855L73.082, 82.922L72.23, 82.964L71.599, 82.962L71.274, 82.902"/><path stroke="black" fill="none" stroke-width="1" d="M87.037, 84.923L87.041, 84.175L87.05, 83.718L87.064, 83.587L87.079, 83.816L87.099, 84.865L87.079, 85.946L87.063, 86.207L87.05, 86.101L87.04, 85.661L87.037, 84.922"/><path stroke="black" fill="none" stroke-width="1" d="M88.871, 84.819L88.902, 82.792L88.944, 84.777L88.974, 85.804L89.018, 86.433L89.093, 86.776L89.214, 86.944L89.355, 87.075L89.141, 86.985L88.973, 86.866L88.887, 86.592L88.861, 85.973L88.871, 84.819"/><path stroke="black" fill="none" stroke-width="1" d="M95.225, 83.094L95.135, 82.879L95.267, 83.026L95.641, 83.195L96.246, 83.268L96.829, 83.237L97.137, 83.094L97.215, 83.156L96.938, 83.372L96.299, 83.427L95.621, 83.331L95.225, 83.094"/><path stroke="black" fill="none" stroke-width="1" d="M50.727, 86.117L50.731, 85.28L50.741, 84.767L50.756, 84.62L50.774, 84.881L50.789, 86.061L50.774, 87.277L50.755, 87.568L50.74, 87.445L50.731, 86.949L50.727, 86.117"/><path stroke="black" fill="none" stroke-width="1" d="M42.019, 84.673L42.141, 84.406L42.214, 84.331L42.219, 84.44L42.139, 84.725L42.023, 84.997L41.942, 85.078L42.02, 84.673"/><path stroke="black" fill="none" stroke-width="1" d="M97.126, 86.45L97.143, 86.116L97.184, 86.149L97.184, 86.751L97.143, 86.784L97.126, 86.45"/><path stroke="black" fill="none" stroke-width="1" d="M61.538, 86.279L61.878, 86.187L62.504, 86.204L63.11, 86.302L63.388, 86.45L63.382, 86.558L63.341, 86.471L63.094, 86.346L62.375, 86.341L61.756, 86.339L61.538, 86.279"/><path stroke="black" fill="none" stroke-width="1" d="M91.058, 86.273L91.38, 86.217L92.025, 86.211L92.903, 86.237L92.04, 86.284L91.402, 86.364L91.079, 86.492L90.975, 86.507L91.058, 86.273"/><path stroke="black" fill="none" stroke-width="1" d="M72.485, 86.85L73.483, 86.784L73.796, 86.758L73.924, 86.74L73.883, 86.85L73.442, 86.937L72.443, 86.954L71.087, 86.928L72.485, 86.85"/><path stroke="black" fill="none" stroke-width="1" d="M64.084, 87.281L64.116, 87.213L64.401, 87.234L64.701, 87.3L64.521, 87.354L64.085, 87.281"/><path stroke="black" fill="none" stroke-width="1" d="M75.727, 87.588L76.151, 87.15L76.132, 87.281L75.751, 87.762L75.405, 88.045L75.464, 87.912L75.727, 87.588"/><path stroke="black" fill="none" stroke-width="1" d="M85.354, 87.614L85.351, 87.261L85.411, 87.115L85.483, 87.319L85.504, 87.811L85.486, 88.208L85.454, 88.307L85.41, 88.109L85.354, 87.614"/><path stroke="black" fill="none" stroke-width="1" d="M90.211, 87.78L90.228, 87.447L90.269, 87.479L90.269, 88.081L90.228, 88.113L90.211, 87.78"/><path stroke="black" fill="none" stroke-width="1" d="M56.094, 88.674L56.629, 88.668L56.635, 88.628L56.328, 88.611L56.037, 88.63L56.094, 88.674"/><path stroke="black" fill="none" stroke-width="1" d="M64.474, 88.674L64.437, 88.633L64.77, 88.616L65.105, 88.633L65.071, 88.674L64.474, 88.674"/><path stroke="black" fill="none" stroke-width="1" d="M84.024, 88.674L83.987, 88.633L84.32, 88.616L84.658, 88.633L84.621, 88.674L84.024, 88.674"/><path stroke="black" fill="none" stroke-width="1" d="M88.809, 88.674L88.776, 88.633L89.11, 88.616L89.443, 88.633L89.411, 88.674L88.809, 88.674"/><path stroke="black" fill="none" stroke-width="1" d="M93.999, 88.674L94.534, 88.668L94.539, 88.628L94.233, 88.611L93.942, 88.63L93.999, 88.674"/><path stroke="black" fill="none" stroke-width="1" d="M75.841, 48.768L75.816, 48.728L76.075, 48.711L76.336, 48.728L76.309, 48.768L75.841, 48.768"/><path stroke="black" fill="none" stroke-width="1" d="M63.107, 56.79L62.666, 56.321L62.52, 56.125L62.759, 56.321L63.243, 56.79L63.684, 57.261L63.83, 57.455L63.591, 57.261L63.107, 56.79"/><path stroke="black" fill="none" stroke-width="1" d="M75.28, 79.177L75.38, 79.183L75.753, 79.567L76.143, 79.997L75.711, 79.607L75.406, 79.32L75.28, 79.177"/><path stroke="black" fill="none" stroke-width="1" d="M71.243, 80.288L71.601, 80.231L72.34, 80.226L73.347, 80.252L71.269, 80.346L71.311, 81.587L71.313, 82.45L71.253, 82.772L71.182, 82.368L71.155, 81.546L71.175, 80.716L71.243, 80.288"/><path stroke="black" fill="none" stroke-width="1" d="M52.135, 81.047L52.258, 81L52.535, 80.999L52.982, 81.104L52.894, 81.161L52.592, 81.156L52.27, 81.102L52.135, 81.047"/><path stroke="black" fill="none" stroke-width="1" d="M64.474, 81.088L64.437, 81.048L64.77, 81.031L65.105, 81.048L65.071, 81.088L64.474, 81.088"/><path stroke="black" fill="none" stroke-width="1" d="M93.864, 81.088L93.83, 81.048L94.165, 81.031L94.498, 81.048L94.461, 81.088L93.864, 81.088"/><path stroke="black" fill="none" stroke-width="1" d="M53.922, 83.79L53.926, 82.838L53.935, 82.264L53.949, 82.113L53.964, 82.429L53.964, 85.151L53.948, 85.467L53.935, 85.316L53.925, 84.742L53.922, 83.79"/><path stroke="black" fill="none" stroke-width="1" d="M85.837, 81.795L85.827, 81.063L85.879, 81.753L85.97, 82.3L86.159, 82.496L86.269, 82.536L86.117, 82.538L85.895, 82.401L85.837, 81.795"/><path stroke="black" fill="none" stroke-width="1" d="M78.127, 84.855L78.131, 83.579L78.14, 82.808L78.154, 82.604L78.169, 83.026L78.169, 86.684L78.153, 87.104L78.14, 86.899L78.13, 86.13L78.127, 84.855"/><path stroke="black" fill="none" stroke-width="1" d="M90.211, 81.795L90.228, 81.462L90.269, 81.494L90.269, 82.096L90.228, 82.129L90.211, 81.795"/><path stroke="black" fill="none" stroke-width="1" d="M81.364, 82.554L81.307, 82.512L81.598, 82.491L81.905, 82.509L81.899, 82.554L81.364, 82.554"/><path stroke="black" fill="none" stroke-width="1" d="M84.273, 82.564L84.453, 82.498L84.787, 82.462L85.11, 82.464L85.255, 82.512L85.1, 82.566L84.73, 82.616L84.383, 82.619L84.274, 82.564"/><path stroke="black" fill="none" stroke-width="1" d="M89.344, 82.554L89.307, 82.513L89.64, 82.496L89.978, 82.513L89.941, 82.554L89.343, 82.554"/><path stroke="black" fill="none" stroke-width="1" d="M63.591, 83.208L63.612, 83.004L63.669, 83.193L63.887, 83.655L63.974, 83.79L63.809, 83.676L63.591, 83.208"/><path stroke="black" fill="none" stroke-width="1" d="M71.212, 84.366L71.496, 84.235L72.314, 84.216L73.347, 84.242L71.29, 84.336L71.259, 85.624L71.233, 86.917L71.186, 85.727L71.178, 84.84L71.212, 84.367"/><path stroke="black" fill="none" stroke-width="1" d="M67.243, 85.13L66.853, 84.652L67.3, 85.084L67.6, 85.398L67.69, 85.562L67.535, 85.455L67.242, 85.13"/><path stroke="black" fill="none" stroke-width="1" d="M76.517, 85.65L76.531, 85.242L76.569, 85.286L76.569, 86.019L76.531, 86.062L76.517, 85.65"/><path stroke="black" fill="none" stroke-width="1" d="M97.256, 86.45L97.273, 86.191L97.313, 86.216L97.313, 86.684L97.273, 86.709L97.257, 86.45"/><path stroke="black" fill="none" stroke-width="1" d="M84.756, 87.073L84.726, 87.03L84.985, 87.011L85.248, 87.031L85.219, 87.073L84.756, 87.073"/><path stroke="black" fill="none" stroke-width="1" d="M89.375, 87.032L89.498, 86.985L89.775, 86.984L90.222, 87.089L90.134, 87.146L89.832, 87.141L89.51, 87.087L89.375, 87.032"/><path stroke="black" fill="none" stroke-width="1" d="M59.382, 88.445L60.054, 88.377L60.359, 88.335L60.318, 88.445L59.997, 88.533L59.341, 88.554L58.452, 88.533L59.382, 88.445"/><path stroke="black" fill="none" stroke-width="1" d="M39.203, 88.544L39.117, 88.506L39.703, 88.492L40.307, 88.506L40.269, 88.544L39.204, 88.544"/><path stroke="black" fill="none" stroke-width="1" d="M45.786, 88.544L45.726, 88.506L46.285, 88.492L46.842, 88.506L46.784, 88.544L45.786, 88.544"/><path stroke="black" fill="none" stroke-width="1" d="M49.444, 88.539L49.391, 88.503L49.875, 88.487L50.36, 88.503L50.306, 88.539L49.444, 88.539"/><path stroke="black" fill="none" stroke-width="1" d="M70.386, 88.544L70.124, 88.526L70.27, 88.513L70.783, 88.505L71.623, 88.502L72.453, 88.505L72.947, 88.513L73.068, 88.526L72.776, 88.544L71.564, 88.563L70.386, 88.544"/><path stroke="black" fill="none" stroke-width="1" d="M78.704, 88.539L78.651, 88.503L79.135, 88.487L79.62, 88.503L79.566, 88.539L78.704, 88.539"/></svg>